<?xml version="1.0" encoding="UTF-8"?>
<svg id="Layer_1" data-name="Layer 1" xmlns="http://www.w3.org/2000/svg" viewBox="0 0 464.4 172.8">
  <defs>
    <style>
      .cls-1 {
        fill: #a8e000;
      }

      .cls-2 {
        fill: #d1006f;
      }
    </style>
  </defs>
  <path class="cls-2" d="M459.24,137.07c-.64,0-1.28,0-1.92,0-3.97.03-7.93.16-11.84.94-4.6.92-8.28,3.2-10.95,7.1-2.38,3.49-4.04,7.33-5.64,11.2-.23.56-.47,1.13-.96,1.7-.03-.56-.08-1.11-.09-1.67-.06-3.97-.18-7.93-.89-11.85-.96-5.35-3.79-9.42-8.49-12.04-3.21-1.79-6.62-3.23-9.94-4.82-.53-.26-1.08-.48-1.58-.99.47,0,.94,0,1.41,0,4.08-.1,8.15-.16,12.18-.94,4.87-.94,8.66-3.43,11.39-7.57,2.22-3.38,3.79-7.08,5.34-10.8.23-.56.46-1.11.95-1.65.03.57.07,1.14.08,1.7.01,4.08.17,8.15.96,12.18.92,4.68,3.35,8.33,7.32,10.98,2.94,1.97,6.14,3.43,9.38,4.81,1.11.47,2.22.93,3.34,1.39-.02.11-.04.22-.05.32Z"/>
  <path class="cls-1" d="M421.95,12.31h-127.73c-3.28,0-5.93,2.82-5.93,6.29v15.68c-11.74-13.57-28.03-21.98-46.05-21.98h-80.67c-3.2,0-5.8,2.85-5.8,6.38v21.34C140.8,19.07,115.99,5.37,87.89,5.37,42.17,5.37,5.11,41.65,5.11,86.4s37.07,81.03,82.79,81.03c28.09,0,52.91-13.7,67.88-34.64v21.13c0,3.52,2.6,6.38,5.8,6.38h80.67c35.75,0,64.72-33.1,64.75-73.94.25.03.5.05.76.05h12.86v66.83h0v.29c0,3.13,2.01,5.76,4.74,6.53.79.29,1.64.46,2.54.46h60.39c.9,0,1.76-.17,2.55-.47,2.72-.77,4.72-3.4,4.72-6.52v-.17s0-.08,0-.11v-66.83h25.81c.59,0,1.17-.09,1.71-.23.05,0,.1,0,.15.01,2.47-.58,4.34-2.79,4.6-5.5.02-.13.02-.26.03-.39,0-.08.02-.16.02-.24V18.6c0-3.47-2.66-6.29-5.93-6.29ZM112.66,86.36c-3.9.73-7.78,1.56-11.49,3.02-4.36,1.71-7.58,4.61-9.52,8.92-1.73,3.85-2.68,7.93-3.57,12.02-.13.6-.26,1.19-.64,1.84-.13-.54-.27-1.08-.38-1.63-.76-3.89-1.58-7.77-2.97-11.51-1.89-5.1-5.39-8.6-10.48-10.35-3.48-1.19-7.08-2.01-10.63-2.99-.57-.16-1.15-.28-1.73-.7.46-.08.93-.16,1.39-.25,4-.81,8-1.6,11.83-3.08,4.63-1.78,7.92-4.9,9.87-9.46,1.59-3.72,2.48-7.64,3.35-11.57.13-.59.25-1.18.65-1.79.13.55.27,1.1.38,1.66.73,4.02,1.61,8,3.09,11.82,1.73,4.45,4.76,7.6,9.14,9.52,3.25,1.42,6.65,2.3,10.08,3.08,1.17.27,2.35.52,3.53.78,0,.11,0,.22,0,.33-.63.11-1.26.22-1.89.34ZM252.66,86.36c-3.9.73-7.78,1.56-11.49,3.02-4.36,1.71-7.58,4.61-9.52,8.92-1.73,3.85-2.68,7.93-3.57,12.02-.13.6-.26,1.19-.64,1.84-.13-.54-.27-1.08-.38-1.63-.76-3.89-1.58-7.77-2.97-11.51-1.89-5.1-5.39-8.6-10.48-10.35-3.48-1.19-7.08-2.01-10.63-2.99-.57-.16-1.15-.28-1.73-.7.46-.08.93-.16,1.39-.25,4-.81,8-1.6,11.83-3.08,4.63-1.78,7.92-4.9,9.87-9.46,1.59-3.72,2.48-7.64,3.35-11.57.13-.59.25-1.18.65-1.79.13.55.27,1.1.38,1.66.73,4.02,1.61,8,3.09,11.82,1.73,4.45,4.76,7.6,9.14,9.52,3.25,1.42,6.65,2.3,10.08,3.08,1.17.27,2.35.52,3.53.78,0,.11,0,.22,0,.33-.63.11-1.26.22-1.88.34Z"/>
</svg>